<?xml version="1.0" encoding="UTF-8" standalone="no"?>
<!DOCTYPE svg PUBLIC "-//W3C//DTD SVG 1.1//EN"
 "http://www.w3.org/Graphics/SVG/1.1/DTD/svg11.dtd">
<!-- Generated by graphviz version 2.44.1 (0)
 -->
<!-- Title: finite_state_machine Pages: 1 -->
<svg width="397pt" height="360pt"
 viewBox="0.00 0.00 396.90 360.00" xmlns="http://www.w3.org/2000/svg" xmlns:xlink="http://www.w3.org/1999/xlink">
<g id="graph0" class="graph" transform="scale(0.55 0.55) rotate(0) translate(4 654.4)">
<title>finite_state_machine</title>
<polygon fill="white" stroke="transparent" points="-4,4 -4,-654.4 721.87,-654.4 721.87,4 -4,4"/>
<!-- S1 -->
<g id="node1" class="node">
<title>S1</title>
<ellipse fill="none" stroke="black" cx="188.59" cy="-517.7" rx="20.27" ry="20.27"/>
<ellipse fill="none" stroke="black" cx="188.59" cy="-517.7" rx="24.3" ry="24.3"/>
<text text-anchor="middle" x="188.59" y="-514" font-family="Times,serif" font-size="14.00">S1</text>
</g>
<!-- S1&#45;&gt;S1 -->
<g id="edge3" class="edge">
<title>S1&#45;&gt;S1</title>
<path fill="none" stroke="black" d="M176.65,-538.95C174.82,-549.94 178.8,-559.85 188.59,-559.85 195.18,-559.85 199.13,-555.37 200.46,-549.11"/>
<polygon fill="black" stroke="black" points="203.96,-548.97 200.53,-538.95 196.96,-548.93 203.96,-548.97"/>
<text text-anchor="middle" x="188.59" y="-563.65" font-family="Times,serif" font-size="14.00">L N _ </text>
</g>
<!-- S21 -->
<g id="node14" class="node">
<title>S21</title>
<ellipse fill="none" stroke="black" cx="324.99" cy="-605.7" rx="24.9" ry="24.9"/>
<text text-anchor="middle" x="324.99" y="-602" font-family="Times,serif" font-size="14.00">S21</text>
</g>
<!-- S1&#45;&gt;S21 -->
<g id="edge4" class="edge">
<title>S1&#45;&gt;S21</title>
<path fill="none" stroke="black" d="M209.14,-530.49C231.8,-545.33 269.36,-569.93 295.33,-586.93"/>
<polygon fill="black" stroke="black" points="293.7,-590.05 303.99,-592.6 297.54,-584.19 293.7,-590.05"/>
<text text-anchor="middle" x="254.79" y="-578.5" font-family="Times,serif" font-size="14.00">[</text>
</g>
<!-- S17 -->
<g id="node15" class="node">
<title>S17</title>
<ellipse fill="none" stroke="black" cx="324.99" cy="-517.7" rx="24.9" ry="24.9"/>
<text text-anchor="middle" x="324.99" y="-514" font-family="Times,serif" font-size="14.00">S17</text>
</g>
<!-- S1&#45;&gt;S17 -->
<g id="edge6" class="edge">
<title>S1&#45;&gt;S17</title>
<path fill="none" stroke="black" d="M213,-517.7C234.23,-517.7 265.78,-517.7 289.82,-517.7"/>
<polygon fill="black" stroke="black" points="289.94,-521.2 299.94,-517.7 289.94,-514.2 289.94,-521.2"/>
<text text-anchor="middle" x="254.79" y="-521.5" font-family="Times,serif" font-size="14.00">.</text>
</g>
<!-- S2 -->
<g id="node2" class="node">
<title>S2</title>
<ellipse fill="none" stroke="black" cx="188.59" cy="-412.7" rx="20.27" ry="20.27"/>
<ellipse fill="none" stroke="black" cx="188.59" cy="-412.7" rx="24.3" ry="24.3"/>
<text text-anchor="middle" x="188.59" y="-409" font-family="Times,serif" font-size="14.00">S2</text>
</g>
<!-- S2&#45;&gt;S2 -->
<g id="edge14" class="edge">
<title>S2&#45;&gt;S2</title>
<path fill="none" stroke="black" d="M176.65,-433.95C174.82,-444.94 178.8,-454.85 188.59,-454.85 195.18,-454.85 199.13,-450.37 200.46,-444.11"/>
<polygon fill="black" stroke="black" points="203.96,-443.97 200.53,-433.95 196.96,-443.93 203.96,-443.97"/>
<text text-anchor="middle" x="188.59" y="-458.65" font-family="Times,serif" font-size="14.00">N</text>
</g>
<!-- S3 -->
<g id="node18" class="node">
<title>S3</title>
<ellipse fill="none" stroke="black" cx="324.99" cy="-437.7" rx="20.3" ry="20.3"/>
<text text-anchor="middle" x="324.99" y="-434" font-family="Times,serif" font-size="14.00">S3</text>
</g>
<!-- S2&#45;&gt;S3 -->
<g id="edge13" class="edge">
<title>S2&#45;&gt;S3</title>
<path fill="none" stroke="black" d="M212.39,-416.94C235.2,-421.18 270.35,-427.72 295.09,-432.32"/>
<polygon fill="black" stroke="black" points="294.53,-435.78 305,-434.16 295.81,-428.89 294.53,-435.78"/>
<text text-anchor="middle" x="254.79" y="-432.5" font-family="Times,serif" font-size="14.00">.</text>
</g>
<!-- S4 -->
<g id="node3" class="node">
<title>S4</title>
<ellipse fill="none" stroke="black" cx="497.39" cy="-417.7" rx="20.27" ry="20.27"/>
<ellipse fill="none" stroke="black" cx="497.39" cy="-417.7" rx="24.3" ry="24.3"/>
<text text-anchor="middle" x="497.39" y="-414" font-family="Times,serif" font-size="14.00">S4</text>
</g>
<!-- S4&#45;&gt;S4 -->
<g id="edge16" class="edge">
<title>S4&#45;&gt;S4</title>
<path fill="none" stroke="black" d="M488.56,-440.25C487.6,-450.71 490.54,-459.85 497.39,-459.85 501.88,-459.85 504.69,-455.91 505.82,-450.25"/>
<polygon fill="black" stroke="black" points="509.31,-450.38 506.21,-440.25 502.32,-450.1 509.31,-450.38"/>
<text text-anchor="middle" x="497.39" y="-463.65" font-family="Times,serif" font-size="14.00">N</text>
</g>
<!-- S8 -->
<g id="node4" class="node">
<title>S8</title>
<ellipse fill="none" stroke="black" cx="590.78" cy="-149.7" rx="20.27" ry="20.27"/>
<ellipse fill="none" stroke="black" cx="590.78" cy="-149.7" rx="24.3" ry="24.3"/>
<text text-anchor="middle" x="590.78" y="-146" font-family="Times,serif" font-size="14.00">S8</text>
</g>
<!-- S11 -->
<g id="node5" class="node">
<title>S11</title>
<ellipse fill="none" stroke="black" cx="324.99" cy="-103.7" rx="24.87" ry="24.87"/>
<ellipse fill="none" stroke="black" cx="324.99" cy="-103.7" rx="28.9" ry="28.9"/>
<text text-anchor="middle" x="324.99" y="-100" font-family="Times,serif" font-size="14.00">S11</text>
</g>
<!-- S13 -->
<g id="node6" class="node">
<title>S13</title>
<ellipse fill="none" stroke="black" cx="324.99" cy="-28.7" rx="24.87" ry="24.87"/>
<ellipse fill="none" stroke="black" cx="324.99" cy="-28.7" rx="28.9" ry="28.9"/>
<text text-anchor="middle" x="324.99" y="-25" font-family="Times,serif" font-size="14.00">S13</text>
</g>
<!-- S9 -->
<g id="node7" class="node">
<title>S9</title>
<ellipse fill="none" stroke="black" cx="188.59" cy="-334.7" rx="20.27" ry="20.27"/>
<ellipse fill="none" stroke="black" cx="188.59" cy="-334.7" rx="24.3" ry="24.3"/>
<text text-anchor="middle" x="188.59" y="-331" font-family="Times,serif" font-size="14.00">S9</text>
</g>
<!-- S16 -->
<g id="node9" class="node">
<title>S16</title>
<ellipse fill="none" stroke="black" cx="324.99" cy="-370.7" rx="24.87" ry="24.87"/>
<ellipse fill="none" stroke="black" cx="324.99" cy="-370.7" rx="28.9" ry="28.9"/>
<text text-anchor="middle" x="324.99" y="-367" font-family="Times,serif" font-size="14.00">S16</text>
</g>
<!-- S9&#45;&gt;S16 -->
<g id="edge32" class="edge">
<title>S9&#45;&gt;S16</title>
<path fill="none" stroke="black" d="M212.09,-340.72C232.49,-346.19 262.95,-354.35 286.94,-360.77"/>
<polygon fill="black" stroke="black" points="286.21,-364.2 296.78,-363.41 288.02,-357.44 286.21,-364.2"/>
<text text-anchor="middle" x="254.79" y="-361.5" font-family="Times,serif" font-size="14.00">Simbolo</text>
</g>
<!-- S15 -->
<g id="node8" class="node">
<title>S15</title>
<ellipse fill="none" stroke="black" cx="497.39" cy="-266.7" rx="24.87" ry="24.87"/>
<ellipse fill="none" stroke="black" cx="497.39" cy="-266.7" rx="28.9" ry="28.9"/>
<text text-anchor="middle" x="497.39" y="-263" font-family="Times,serif" font-size="14.00">S15</text>
</g>
<!-- S20 -->
<g id="node10" class="node">
<title>S20</title>
<ellipse fill="none" stroke="black" cx="689.18" cy="-517.7" rx="24.87" ry="24.87"/>
<ellipse fill="none" stroke="black" cx="689.18" cy="-517.7" rx="28.9" ry="28.9"/>
<text text-anchor="middle" x="689.18" y="-514" font-family="Times,serif" font-size="14.00">S20</text>
</g>
<!-- S20&#45;&gt;S20 -->
<g id="edge11" class="edge">
<title>S20&#45;&gt;S20</title>
<path fill="none" stroke="black" d="M679.84,-545.04C679.42,-555.61 682.54,-564.4 689.18,-564.4 693.53,-564.4 696.37,-560.61 697.69,-555.02"/>
<polygon fill="black" stroke="black" points="701.18,-555.29 698.52,-545.04 694.21,-554.72 701.18,-555.29"/>
<text text-anchor="middle" x="689.18" y="-568.2" font-family="Times,serif" font-size="14.00">L </text>
</g>
<!-- S22 -->
<g id="node11" class="node">
<title>S22</title>
<ellipse fill="none" stroke="black" cx="497.39" cy="-621.7" rx="24.87" ry="24.87"/>
<ellipse fill="none" stroke="black" cx="497.39" cy="-621.7" rx="28.9" ry="28.9"/>
<text text-anchor="middle" x="497.39" y="-618" font-family="Times,serif" font-size="14.00">S22</text>
</g>
<!-- qi -->
<g id="node12" class="node">
<title>qi</title>
<ellipse fill="black" stroke="black" cx="1.8" cy="-292.7" rx="1.8" ry="1.8"/>
</g>
<!-- S0 -->
<g id="node13" class="node">
<title>S0</title>
<ellipse fill="none" stroke="black" cx="60.75" cy="-292.7" rx="20.3" ry="20.3"/>
<text text-anchor="middle" x="60.75" y="-289" font-family="Times,serif" font-size="14.00">S0</text>
</g>
<!-- qi&#45;&gt;S0 -->
<g id="edge1" class="edge">
<title>qi&#45;&gt;S0</title>
<path fill="none" stroke="black" d="M3.79,-292.7C7.15,-292.7 18.56,-292.7 30.21,-292.7"/>
<polygon fill="black" stroke="black" points="30.31,-296.2 40.31,-292.7 30.31,-289.2 30.31,-296.2"/>
</g>
<!-- S0&#45;&gt;S1 -->
<g id="edge2" class="edge">
<title>S0&#45;&gt;S1</title>
<path fill="none" stroke="black" d="M66.6,-312.39C72.49,-334.45 83.55,-370.89 98.9,-399.7 117.24,-434.15 145.15,-469.37 164.75,-492.25"/>
<polygon fill="black" stroke="black" points="162.37,-494.85 171.57,-500.1 167.65,-490.26 162.37,-494.85"/>
<text text-anchor="middle" x="122.4" y="-472.5" font-family="Times,serif" font-size="14.00">L</text>
</g>
<!-- S0&#45;&gt;S2 -->
<g id="edge12" class="edge">
<title>S0&#45;&gt;S2</title>
<path fill="none" stroke="black" d="M73.33,-309.07C80.29,-318.44 89.58,-330.19 98.9,-339.7 117.97,-359.16 141.96,-378.64 160.17,-392.58"/>
<polygon fill="black" stroke="black" points="158.51,-395.71 168.6,-398.95 162.74,-390.13 158.51,-395.71"/>
<text text-anchor="middle" x="122.4" y="-384.5" font-family="Times,serif" font-size="14.00">N</text>
</g>
<!-- S0&#45;&gt;S9 -->
<g id="edge31" class="edge">
<title>S0&#45;&gt;S9</title>
<path fill="none" stroke="black" d="M80.05,-298.8C99.85,-305.41 131.8,-316.08 155.74,-324.07"/>
<polygon fill="black" stroke="black" points="154.86,-327.46 165.46,-327.31 157.08,-320.82 154.86,-327.46"/>
<text text-anchor="middle" x="122.4" y="-324.5" font-family="Times,serif" font-size="14.00">Simbolo</text>
</g>
<!-- S5 -->
<g id="node19" class="node">
<title>S5</title>
<ellipse fill="none" stroke="black" cx="188.59" cy="-266.7" rx="20.3" ry="20.3"/>
<text text-anchor="middle" x="188.59" y="-263" font-family="Times,serif" font-size="14.00">S5</text>
</g>
<!-- S0&#45;&gt;S5 -->
<g id="edge17" class="edge">
<title>S0&#45;&gt;S5</title>
<path fill="none" stroke="black" d="M80.59,-288.81C101.25,-284.54 134.67,-277.63 158.66,-272.67"/>
<polygon fill="black" stroke="black" points="159.54,-276.07 168.63,-270.62 158.12,-269.21 159.54,-276.07"/>
<text text-anchor="middle" x="122.4" y="-289.5" font-family="Times,serif" font-size="14.00">/</text>
</g>
<!-- S10 -->
<g id="node23" class="node">
<title>S10</title>
<ellipse fill="none" stroke="black" cx="188.59" cy="-160.7" rx="24.9" ry="24.9"/>
<text text-anchor="middle" x="188.59" y="-157" font-family="Times,serif" font-size="14.00">S10</text>
</g>
<!-- S0&#45;&gt;S10 -->
<g id="edge25" class="edge">
<title>S0&#45;&gt;S10</title>
<path fill="none" stroke="black" d="M75.22,-278.57C96.31,-256.44 137.45,-213.3 163.67,-185.79"/>
<polygon fill="black" stroke="black" points="166.27,-188.14 170.64,-178.48 161.2,-183.31 166.27,-188.14"/>
<text text-anchor="middle" x="122.4" y="-257.5" font-family="Times,serif" font-size="14.00">&quot;</text>
</g>
<!-- S12 -->
<g id="node24" class="node">
<title>S12</title>
<ellipse fill="none" stroke="black" cx="188.59" cy="-39.7" rx="24.9" ry="24.9"/>
<text text-anchor="middle" x="188.59" y="-36" font-family="Times,serif" font-size="14.00">S12</text>
</g>
<!-- S0&#45;&gt;S12 -->
<g id="edge28" class="edge">
<title>S0&#45;&gt;S12</title>
<path fill="none" stroke="black" d="M67.39,-273.47C73.88,-252.25 85.42,-217.32 98.9,-188.7 119.47,-145.01 149.08,-97.57 168.33,-68.23"/>
<polygon fill="black" stroke="black" points="171.36,-70.01 173.95,-59.74 165.52,-66.15 171.36,-70.01"/>
<text text-anchor="middle" x="122.4" y="-192.5" font-family="Times,serif" font-size="14.00">&#39;</text>
</g>
<!-- S21&#45;&gt;S22 -->
<g id="edge5" class="edge">
<title>S21&#45;&gt;S22</title>
<path fill="none" stroke="black" d="M349.68,-607.92C377.82,-610.56 425.12,-615.01 458.39,-618.13"/>
<polygon fill="black" stroke="black" points="458.38,-621.64 468.66,-619.09 459.03,-614.67 458.38,-621.64"/>
<text text-anchor="middle" x="411.19" y="-620.5" font-family="Times,serif" font-size="14.00">]</text>
</g>
<!-- S18 -->
<g id="node16" class="node">
<title>S18</title>
<ellipse fill="none" stroke="black" cx="497.39" cy="-517.7" rx="24.9" ry="24.9"/>
<text text-anchor="middle" x="497.39" y="-514" font-family="Times,serif" font-size="14.00">S18</text>
</g>
<!-- S17&#45;&gt;S18 -->
<g id="edge7" class="edge">
<title>S17&#45;&gt;S18</title>
<path fill="none" stroke="black" d="M350.04,-517.7C379.35,-517.7 429.05,-517.7 462.29,-517.7"/>
<polygon fill="black" stroke="black" points="462.46,-521.2 472.46,-517.7 462.46,-514.2 462.46,-521.2"/>
<text text-anchor="middle" x="411.19" y="-521.5" font-family="Times,serif" font-size="14.00">L</text>
</g>
<!-- S18&#45;&gt;S18 -->
<g id="edge8" class="edge">
<title>S18&#45;&gt;S18</title>
<path fill="none" stroke="black" d="M488.53,-540.98C487.68,-551.39 490.64,-560.4 497.39,-560.4 501.71,-560.4 504.48,-556.7 505.68,-551.3"/>
<polygon fill="black" stroke="black" points="509.2,-551.15 506.24,-540.98 502.21,-550.77 509.2,-551.15"/>
<text text-anchor="middle" x="497.39" y="-564.2" font-family="Times,serif" font-size="14.00">L </text>
</g>
<!-- S19 -->
<g id="node17" class="node">
<title>S19</title>
<ellipse fill="none" stroke="black" cx="590.78" cy="-517.7" rx="24.9" ry="24.9"/>
<text text-anchor="middle" x="590.78" y="-514" font-family="Times,serif" font-size="14.00">S19</text>
</g>
<!-- S18&#45;&gt;S19 -->
<g id="edge9" class="edge">
<title>S18&#45;&gt;S19</title>
<path fill="none" stroke="black" d="M522.4,-517.7C532.58,-517.7 544.63,-517.7 555.7,-517.7"/>
<polygon fill="black" stroke="black" points="555.93,-521.2 565.93,-517.7 555.93,-514.2 555.93,-521.2"/>
<text text-anchor="middle" x="546.08" y="-521.5" font-family="Times,serif" font-size="14.00">.</text>
</g>
<!-- S19&#45;&gt;S20 -->
<g id="edge10" class="edge">
<title>S19&#45;&gt;S20</title>
<path fill="none" stroke="black" d="M615.61,-517.7C625.94,-517.7 638.3,-517.7 649.86,-517.7"/>
<polygon fill="black" stroke="black" points="650.18,-521.2 660.18,-517.7 650.18,-514.2 650.18,-521.2"/>
<text text-anchor="middle" x="637.98" y="-521.5" font-family="Times,serif" font-size="14.00">L</text>
</g>
<!-- S3&#45;&gt;S4 -->
<g id="edge15" class="edge">
<title>S3&#45;&gt;S4</title>
<path fill="none" stroke="black" d="M345.21,-435.44C373.76,-432.09 427.79,-425.75 462.93,-421.63"/>
<polygon fill="black" stroke="black" points="463.65,-425.06 473.17,-420.42 462.83,-418.11 463.65,-425.06"/>
<text text-anchor="middle" x="411.19" y="-435.5" font-family="Times,serif" font-size="14.00">N</text>
</g>
<!-- S14 -->
<g id="node20" class="node">
<title>S14</title>
<ellipse fill="none" stroke="black" cx="324.99" cy="-266.7" rx="24.9" ry="24.9"/>
<text text-anchor="middle" x="324.99" y="-263" font-family="Times,serif" font-size="14.00">S14</text>
</g>
<!-- S5&#45;&gt;S14 -->
<g id="edge18" class="edge">
<title>S5&#45;&gt;S14</title>
<path fill="none" stroke="black" d="M208.85,-266.7C230.03,-266.7 264.47,-266.7 290.17,-266.7"/>
<polygon fill="black" stroke="black" points="290.24,-270.2 300.24,-266.7 290.24,-263.2 290.24,-270.2"/>
<text text-anchor="middle" x="254.79" y="-270.5" font-family="Times,serif" font-size="14.00">/</text>
</g>
<!-- S6 -->
<g id="node21" class="node">
<title>S6</title>
<ellipse fill="none" stroke="black" cx="324.99" cy="-170.7" rx="20.3" ry="20.3"/>
<text text-anchor="middle" x="324.99" y="-167" font-family="Times,serif" font-size="14.00">S6</text>
</g>
<!-- S5&#45;&gt;S6 -->
<g id="edge19" class="edge">
<title>S5&#45;&gt;S6</title>
<path fill="none" stroke="black" d="M205.54,-255.31C228.88,-238.64 272.53,-207.46 299.82,-187.96"/>
<polygon fill="black" stroke="black" points="301.96,-190.73 308.07,-182.07 297.89,-185.04 301.96,-190.73"/>
<text text-anchor="middle" x="254.79" y="-239.5" font-family="Times,serif" font-size="14.00">*</text>
</g>
<!-- S14&#45;&gt;S15 -->
<g id="edge34" class="edge">
<title>S14&#45;&gt;S15</title>
<path fill="none" stroke="black" d="M350.04,-266.7C378.19,-266.7 425.15,-266.7 458.27,-266.7"/>
<polygon fill="black" stroke="black" points="458.5,-270.2 468.5,-266.7 458.5,-263.2 458.5,-270.2"/>
<text text-anchor="middle" x="411.19" y="-270.5" font-family="Times,serif" font-size="14.00">\n</text>
</g>
<!-- S14&#45;&gt;S14 -->
<g id="edge33" class="edge">
<title>S14&#45;&gt;S14</title>
<path fill="none" stroke="black" d="M312.33,-288.23C310.38,-299.36 314.6,-309.4 324.99,-309.4 331.97,-309.4 336.17,-304.87 337.58,-298.52"/>
<polygon fill="black" stroke="black" points="341.08,-298.25 337.65,-288.23 334.08,-298.2 341.08,-298.25"/>
<text text-anchor="middle" x="324.99" y="-313.2" font-family="Times,serif" font-size="14.00">cualquier cosa</text>
</g>
<!-- S6&#45;&gt;S6 -->
<g id="edge20" class="edge">
<title>S6&#45;&gt;S6</title>
<path fill="none" stroke="black" d="M313.02,-187.17C309.65,-198.15 313.64,-208.85 324.99,-208.85 332.61,-208.85 336.92,-204.02 337.9,-197.52"/>
<polygon fill="black" stroke="black" points="341.35,-196.81 336.96,-187.17 334.38,-197.44 341.35,-196.81"/>
<text text-anchor="middle" x="324.99" y="-212.65" font-family="Times,serif" font-size="14.00">cualquier cosa</text>
</g>
<!-- S7 -->
<g id="node22" class="node">
<title>S7</title>
<ellipse fill="none" stroke="black" cx="497.39" cy="-149.7" rx="20.3" ry="20.3"/>
<text text-anchor="middle" x="497.39" y="-146" font-family="Times,serif" font-size="14.00">S7</text>
</g>
<!-- S6&#45;&gt;S7 -->
<g id="edge21" class="edge">
<title>S6&#45;&gt;S7</title>
<path fill="none" stroke="black" d="M345.46,-168.76C370.02,-166.25 413.54,-161.63 450.69,-156.7 456.02,-155.99 461.69,-155.17 467.16,-154.35"/>
<polygon fill="black" stroke="black" points="467.94,-157.78 477.29,-152.8 466.87,-150.86 467.94,-157.78"/>
<text text-anchor="middle" x="411.19" y="-170.5" font-family="Times,serif" font-size="14.00">*</text>
</g>
<!-- S7&#45;&gt;S8 -->
<g id="edge24" class="edge">
<title>S7&#45;&gt;S8</title>
<path fill="none" stroke="black" d="M517.77,-149.7C529.01,-149.7 543.49,-149.7 556.5,-149.7"/>
<polygon fill="black" stroke="black" points="556.54,-153.2 566.54,-149.7 556.54,-146.2 556.54,-153.2"/>
<text text-anchor="middle" x="546.08" y="-153.5" font-family="Times,serif" font-size="14.00">/</text>
</g>
<!-- S7&#45;&gt;S6 -->
<g id="edge23" class="edge">
<title>S7&#45;&gt;S6</title>
<path fill="none" stroke="black" d="M478.13,-143.46C453.39,-136.01 408.11,-125.92 371.69,-137.7 363.31,-140.41 355.17,-145.29 348.14,-150.48"/>
<polygon fill="black" stroke="black" points="345.52,-148.1 339.9,-157.09 349.89,-153.57 345.52,-148.1"/>
<text text-anchor="middle" x="411.19" y="-141.5" font-family="Times,serif" font-size="14.00">cualquier cosa</text>
</g>
<!-- S7&#45;&gt;S7 -->
<g id="edge22" class="edge">
<title>S7&#45;&gt;S7</title>
<path fill="none" stroke="black" d="M488.82,-168.15C487.22,-178.4 490.07,-187.85 497.39,-187.85 502.07,-187.85 504.93,-183.97 505.95,-178.49"/>
<polygon fill="black" stroke="black" points="509.45,-178.15 505.95,-168.15 502.45,-178.15 509.45,-178.15"/>
<text text-anchor="middle" x="497.39" y="-191.65" font-family="Times,serif" font-size="14.00">*</text>
</g>
<!-- S10&#45;&gt;S11 -->
<g id="edge27" class="edge">
<title>S10&#45;&gt;S11</title>
<path fill="none" stroke="black" d="M211.49,-151.41C232.37,-142.56 264.17,-129.07 288.65,-118.69"/>
<polygon fill="black" stroke="black" points="290.12,-121.86 297.96,-114.74 287.39,-115.42 290.12,-121.86"/>
<text text-anchor="middle" x="254.79" y="-146.5" font-family="Times,serif" font-size="14.00">&quot;</text>
</g>
<!-- S10&#45;&gt;S10 -->
<g id="edge26" class="edge">
<title>S10&#45;&gt;S10</title>
<path fill="none" stroke="black" d="M176.58,-182.67C174.92,-193.62 178.93,-203.4 188.59,-203.4 195.09,-203.4 199.03,-198.98 200.41,-192.77"/>
<polygon fill="black" stroke="black" points="203.91,-192.73 200.6,-182.67 196.91,-192.6 203.91,-192.73"/>
<text text-anchor="middle" x="188.59" y="-207.2" font-family="Times,serif" font-size="14.00">cualquier cosa</text>
</g>
<!-- S12&#45;&gt;S13 -->
<g id="edge30" class="edge">
<title>S12&#45;&gt;S13</title>
<path fill="none" stroke="black" d="M213.31,-37.76C233.44,-36.11 262.69,-33.72 286.06,-31.8"/>
<polygon fill="black" stroke="black" points="286.65,-35.27 296.33,-30.96 286.08,-28.29 286.65,-35.27"/>
<text text-anchor="middle" x="254.79" y="-40.5" font-family="Times,serif" font-size="14.00">&#39;</text>
</g>
<!-- S12&#45;&gt;S12 -->
<g id="edge29" class="edge">
<title>S12&#45;&gt;S12</title>
<path fill="none" stroke="black" d="M176.58,-61.67C174.92,-72.62 178.93,-82.4 188.59,-82.4 195.09,-82.4 199.03,-77.98 200.41,-71.77"/>
<polygon fill="black" stroke="black" points="203.91,-71.73 200.6,-61.67 196.91,-71.6 203.91,-71.73"/>
<text text-anchor="middle" x="188.59" y="-86.2" font-family="Times,serif" font-size="14.00">cualquier cosa</text>
</g>
</g>
</svg>
