<?xml version="1.0" encoding="UTF-8" standalone="no"?>
<!DOCTYPE svg PUBLIC "-//W3C//DTD SVG 1.1//EN"
 "http://www.w3.org/Graphics/SVG/1.1/DTD/svg11.dtd">
<!-- Generated by graphviz version 2.44.1 (0)
 -->
<!-- Title: G Pages: 1 -->
<svg width="1073pt" height="764pt"
 viewBox="0.00 0.00 1072.84 764.00" xmlns="http://www.w3.org/2000/svg" xmlns:xlink="http://www.w3.org/1999/xlink">
<g id="graph0" class="graph" transform="scale(1 1) rotate(0) translate(4 760)">
<title>G</title>
<polygon fill="white" stroke="transparent" points="-4,4 -4,-760 1068.84,-760 1068.84,4 -4,4"/>
<!-- 1 -->
<g id="node1" class="node">
<title>1</title>
<ellipse fill="none" stroke="black" cx="269.5" cy="-738" rx="27" ry="18"/>
<text text-anchor="middle" x="269.5" y="-734.3" font-family="Times,serif" font-size="14.00">INI</text>
</g>
<!-- 2 -->
<g id="node2" class="node">
<title>2</title>
<ellipse fill="none" stroke="black" cx="269.5" cy="-666" rx="79.89" ry="18"/>
<text text-anchor="middle" x="269.5" y="-662.3" font-family="Times,serif" font-size="14.00">INSTRUCCIONES</text>
</g>
<!-- 1&#45;&gt;2 -->
<g id="edge1" class="edge">
<title>1&#45;&gt;2</title>
<path fill="none" stroke="black" d="M269.5,-719.7C269.5,-711.98 269.5,-702.71 269.5,-694.11"/>
<polygon fill="black" stroke="black" points="273,-694.1 269.5,-684.1 266,-694.1 273,-694.1"/>
</g>
<!-- 3 -->
<g id="node3" class="node">
<title>3</title>
<ellipse fill="none" stroke="black" cx="269.5" cy="-594" rx="90.98" ry="18"/>
<text text-anchor="middle" x="269.5" y="-590.3" font-family="Times,serif" font-size="14.00">CLASE_INTERFACE</text>
</g>
<!-- 2&#45;&gt;3 -->
<g id="edge2" class="edge">
<title>2&#45;&gt;3</title>
<path fill="none" stroke="black" d="M269.5,-647.7C269.5,-639.98 269.5,-630.71 269.5,-622.11"/>
<polygon fill="black" stroke="black" points="273,-622.1 269.5,-612.1 266,-622.1 273,-622.1"/>
</g>
<!-- 4 -->
<g id="node4" class="node">
<title>4</title>
<ellipse fill="none" stroke="black" cx="61.5" cy="-522" rx="32.49" ry="18"/>
<text text-anchor="middle" x="61.5" y="-518.3" font-family="Times,serif" font-size="14.00">public</text>
</g>
<!-- 3&#45;&gt;4 -->
<g id="edge3" class="edge">
<title>3&#45;&gt;4</title>
<path fill="none" stroke="black" d="M220.89,-578.78C187.37,-568.68 141.93,-554.4 102.5,-540 100.38,-539.23 98.21,-538.41 96.03,-537.56"/>
<polygon fill="black" stroke="black" points="97.1,-534.22 86.52,-533.77 94.51,-540.73 97.1,-534.22"/>
</g>
<!-- 5 -->
<g id="node5" class="node">
<title>5</title>
<ellipse fill="none" stroke="black" cx="139.5" cy="-522" rx="27.9" ry="18"/>
<text text-anchor="middle" x="139.5" y="-518.3" font-family="Times,serif" font-size="14.00">class</text>
</g>
<!-- 3&#45;&gt;5 -->
<g id="edge4" class="edge">
<title>3&#45;&gt;5</title>
<path fill="none" stroke="black" d="M239.67,-576.94C218.52,-565.55 190.24,-550.33 169.13,-538.96"/>
<polygon fill="black" stroke="black" points="170.74,-535.85 160.27,-534.19 167.42,-542.01 170.74,-535.85"/>
</g>
<!-- 6 -->
<g id="node6" class="node">
<title>6</title>
<ellipse fill="none" stroke="black" cx="226.5" cy="-522" rx="40.89" ry="18"/>
<text text-anchor="middle" x="226.5" y="-518.3" font-family="Times,serif" font-size="14.00">Myclase</text>
</g>
<!-- 3&#45;&gt;6 -->
<g id="edge5" class="edge">
<title>3&#45;&gt;6</title>
<path fill="none" stroke="black" d="M259.09,-576.05C254.02,-567.8 247.81,-557.7 242.18,-548.54"/>
<polygon fill="black" stroke="black" points="245.03,-546.48 236.81,-539.79 239.06,-550.14 245.03,-546.48"/>
</g>
<!-- 7 -->
<g id="node7" class="node">
<title>7</title>
<ellipse fill="none" stroke="black" cx="312.5" cy="-522" rx="27" ry="18"/>
<text text-anchor="middle" x="312.5" y="-518.3" font-family="Times,serif" font-size="14.00">{</text>
</g>
<!-- 3&#45;&gt;7 -->
<g id="edge6" class="edge">
<title>3&#45;&gt;7</title>
<path fill="none" stroke="black" d="M279.91,-576.05C285.18,-567.47 291.68,-556.89 297.48,-547.44"/>
<polygon fill="black" stroke="black" points="300.52,-549.18 302.77,-538.83 294.56,-545.52 300.52,-549.18"/>
</g>
<!-- 8 -->
<g id="node8" class="node">
<title>8</title>
<ellipse fill="none" stroke="black" cx="414.5" cy="-522" rx="57.39" ry="18"/>
<text text-anchor="middle" x="414.5" y="-518.3" font-family="Times,serif" font-size="14.00">INS_CLASE</text>
</g>
<!-- 3&#45;&gt;8 -->
<g id="edge7" class="edge">
<title>3&#45;&gt;8</title>
<path fill="none" stroke="black" d="M302.4,-577.12C324.14,-566.62 352.73,-552.82 375.59,-541.78"/>
<polygon fill="black" stroke="black" points="377.2,-544.89 384.68,-537.39 374.16,-538.59 377.2,-544.89"/>
</g>
<!-- 41 -->
<g id="node41" class="node">
<title>41</title>
<ellipse fill="none" stroke="black" cx="516.5" cy="-522" rx="27" ry="18"/>
<text text-anchor="middle" x="516.5" y="-518.3" font-family="Times,serif" font-size="14.00">}</text>
</g>
<!-- 3&#45;&gt;41 -->
<g id="edge40" class="edge">
<title>3&#45;&gt;41</title>
<path fill="none" stroke="black" d="M331.38,-580.79C373.94,-571.59 431.42,-557.56 480.5,-540 482.35,-539.34 484.24,-538.61 486.13,-537.84"/>
<polygon fill="black" stroke="black" points="487.7,-540.98 495.47,-533.77 484.9,-534.56 487.7,-540.98"/>
</g>
<!-- 9 -->
<g id="node9" class="node">
<title>9</title>
<ellipse fill="none" stroke="black" cx="278.5" cy="-450" rx="73.39" ry="18"/>
<text text-anchor="middle" x="278.5" y="-446.3" font-family="Times,serif" font-size="14.00">DECLARACION</text>
</g>
<!-- 8&#45;&gt;9 -->
<g id="edge8" class="edge">
<title>8&#45;&gt;9</title>
<path fill="none" stroke="black" d="M385.99,-506.33C366.22,-496.15 339.65,-482.47 317.87,-471.26"/>
<polygon fill="black" stroke="black" points="319.35,-468.09 308.86,-466.63 316.15,-474.32 319.35,-468.09"/>
</g>
<!-- 30 -->
<g id="node30" class="node">
<title>30</title>
<ellipse fill="none" stroke="black" cx="550.5" cy="-450" rx="69.59" ry="18"/>
<text text-anchor="middle" x="550.5" y="-446.3" font-family="Times,serif" font-size="14.00">IMP_METODO</text>
</g>
<!-- 8&#45;&gt;30 -->
<g id="edge29" class="edge">
<title>8&#45;&gt;30</title>
<path fill="none" stroke="black" d="M443.01,-506.33C462.91,-496.08 489.71,-482.29 511.58,-471.03"/>
<polygon fill="black" stroke="black" points="513.32,-474.07 520.61,-466.38 510.12,-467.85 513.32,-474.07"/>
</g>
<!-- 10 -->
<g id="node10" class="node">
<title>10</title>
<ellipse fill="none" stroke="black" cx="113.5" cy="-378" rx="57.69" ry="18"/>
<text text-anchor="middle" x="113.5" y="-374.3" font-family="Times,serif" font-size="14.00">TIPO_DATO</text>
</g>
<!-- 9&#45;&gt;10 -->
<g id="edge9" class="edge">
<title>9&#45;&gt;10</title>
<path fill="none" stroke="black" d="M243.5,-434.15C217.78,-423.24 182.71,-408.36 155.47,-396.81"/>
<polygon fill="black" stroke="black" points="156.77,-393.56 146.19,-392.87 154.03,-400 156.77,-393.56"/>
</g>
<!-- 12 -->
<g id="node12" class="node">
<title>12</title>
<ellipse fill="none" stroke="black" cx="278.5" cy="-378" rx="48.99" ry="18"/>
<text text-anchor="middle" x="278.5" y="-374.3" font-family="Times,serif" font-size="14.00">LISTA_ID</text>
</g>
<!-- 9&#45;&gt;12 -->
<g id="edge11" class="edge">
<title>9&#45;&gt;12</title>
<path fill="none" stroke="black" d="M278.5,-431.7C278.5,-423.98 278.5,-414.71 278.5,-406.11"/>
<polygon fill="black" stroke="black" points="282,-406.1 278.5,-396.1 275,-406.1 282,-406.1"/>
</g>
<!-- 11 -->
<g id="node11" class="node">
<title>11</title>
<ellipse fill="none" stroke="black" cx="32.5" cy="-306" rx="32.49" ry="18"/>
<text text-anchor="middle" x="32.5" y="-302.3" font-family="Times,serif" font-size="14.00">String</text>
</g>
<!-- 10&#45;&gt;11 -->
<g id="edge10" class="edge">
<title>10&#45;&gt;11</title>
<path fill="none" stroke="black" d="M94.71,-360.76C83.44,-351.02 68.98,-338.53 56.84,-328.04"/>
<polygon fill="black" stroke="black" points="59.11,-325.37 49.26,-321.48 54.53,-330.67 59.11,-325.37"/>
</g>
<!-- 13 -->
<g id="node13" class="node">
<title>13</title>
<ellipse fill="none" stroke="black" cx="155.5" cy="-306" rx="72.59" ry="18"/>
<text text-anchor="middle" x="155.5" y="-302.3" font-family="Times,serif" font-size="14.00">ID_IGUAL_EXP</text>
</g>
<!-- 12&#45;&gt;13 -->
<g id="edge12" class="edge">
<title>12&#45;&gt;13</title>
<path fill="none" stroke="black" d="M253.01,-362.5C235.32,-352.43 211.48,-338.86 191.8,-327.66"/>
<polygon fill="black" stroke="black" points="193.51,-324.61 183.09,-322.7 190.05,-330.69 193.51,-324.61"/>
</g>
<!-- 15 -->
<g id="node15" class="node">
<title>15</title>
<ellipse fill="none" stroke="black" cx="319.5" cy="-306" rx="72.59" ry="18"/>
<text text-anchor="middle" x="319.5" y="-302.3" font-family="Times,serif" font-size="14.00">ID_IGUAL_EXP</text>
</g>
<!-- 12&#45;&gt;15 -->
<g id="edge14" class="edge">
<title>12&#45;&gt;15</title>
<path fill="none" stroke="black" d="M288.42,-360.05C293.19,-351.92 299,-342 304.3,-332.94"/>
<polygon fill="black" stroke="black" points="307.34,-334.67 309.38,-324.28 301.3,-331.14 307.34,-334.67"/>
</g>
<!-- 25 -->
<g id="node25" class="node">
<title>25</title>
<ellipse fill="none" stroke="black" cx="483.5" cy="-306" rx="72.59" ry="18"/>
<text text-anchor="middle" x="483.5" y="-302.3" font-family="Times,serif" font-size="14.00">ID_IGUAL_EXP</text>
</g>
<!-- 12&#45;&gt;25 -->
<g id="edge24" class="edge">
<title>12&#45;&gt;25</title>
<path fill="none" stroke="black" d="M313.27,-365.13C346.09,-353.92 395.69,-336.98 432.89,-324.28"/>
<polygon fill="black" stroke="black" points="434.21,-327.53 442.55,-320.98 431.95,-320.9 434.21,-327.53"/>
</g>
<!-- 14 -->
<g id="node14" class="node">
<title>14</title>
<ellipse fill="none" stroke="black" cx="155.5" cy="-234" rx="38.99" ry="18"/>
<text text-anchor="middle" x="155.5" y="-230.3" font-family="Times,serif" font-size="14.00">variable</text>
</g>
<!-- 13&#45;&gt;14 -->
<g id="edge13" class="edge">
<title>13&#45;&gt;14</title>
<path fill="none" stroke="black" d="M155.5,-287.7C155.5,-279.98 155.5,-270.71 155.5,-262.11"/>
<polygon fill="black" stroke="black" points="159,-262.1 155.5,-252.1 152,-262.1 159,-262.1"/>
</g>
<!-- 16 -->
<g id="node16" class="node">
<title>16</title>
<ellipse fill="none" stroke="black" cx="284.5" cy="-234" rx="27" ry="18"/>
<text text-anchor="middle" x="284.5" y="-230.3" font-family="Times,serif" font-size="14.00">lol1</text>
</g>
<!-- 15&#45;&gt;16 -->
<g id="edge15" class="edge">
<title>15&#45;&gt;16</title>
<path fill="none" stroke="black" d="M311.02,-288.05C306.88,-279.77 301.81,-269.62 297.21,-260.42"/>
<polygon fill="black" stroke="black" points="300.25,-258.69 292.65,-251.31 293.99,-261.82 300.25,-258.69"/>
</g>
<!-- 17 -->
<g id="node17" class="node">
<title>17</title>
<ellipse fill="none" stroke="black" cx="356.5" cy="-234" rx="27.1" ry="18"/>
<text text-anchor="middle" x="356.5" y="-230.3" font-family="Times,serif" font-size="14.00">EXP</text>
</g>
<!-- 15&#45;&gt;17 -->
<g id="edge16" class="edge">
<title>15&#45;&gt;17</title>
<path fill="none" stroke="black" d="M328.45,-288.05C332.83,-279.77 338.2,-269.62 343.06,-260.42"/>
<polygon fill="black" stroke="black" points="346.3,-261.78 347.88,-251.31 340.11,-258.51 346.3,-261.78"/>
</g>
<!-- 18 -->
<g id="node18" class="node">
<title>18</title>
<ellipse fill="none" stroke="black" cx="284.5" cy="-162" rx="27.1" ry="18"/>
<text text-anchor="middle" x="284.5" y="-158.3" font-family="Times,serif" font-size="14.00">EXP</text>
</g>
<!-- 17&#45;&gt;18 -->
<g id="edge17" class="edge">
<title>17&#45;&gt;18</title>
<path fill="none" stroke="black" d="M341.58,-218.5C331.54,-208.73 318.12,-195.69 306.82,-184.7"/>
<polygon fill="black" stroke="black" points="309.01,-181.95 299.4,-177.49 304.13,-186.97 309.01,-181.95"/>
</g>
<!-- 21 -->
<g id="node21" class="node">
<title>21</title>
<ellipse fill="none" stroke="black" cx="356.5" cy="-162" rx="27" ry="18"/>
<text text-anchor="middle" x="356.5" y="-158.3" font-family="Times,serif" font-size="14.00">*</text>
</g>
<!-- 17&#45;&gt;21 -->
<g id="edge20" class="edge">
<title>17&#45;&gt;21</title>
<path fill="none" stroke="black" d="M356.5,-215.7C356.5,-207.98 356.5,-198.71 356.5,-190.11"/>
<polygon fill="black" stroke="black" points="360,-190.1 356.5,-180.1 353,-190.1 360,-190.1"/>
</g>
<!-- 22 -->
<g id="node22" class="node">
<title>22</title>
<ellipse fill="none" stroke="black" cx="428.5" cy="-162" rx="27.1" ry="18"/>
<text text-anchor="middle" x="428.5" y="-158.3" font-family="Times,serif" font-size="14.00">EXP</text>
</g>
<!-- 17&#45;&gt;22 -->
<g id="edge21" class="edge">
<title>17&#45;&gt;22</title>
<path fill="none" stroke="black" d="M371.42,-218.5C381.46,-208.73 394.87,-195.69 406.18,-184.7"/>
<polygon fill="black" stroke="black" points="408.87,-186.97 413.6,-177.49 403.99,-181.95 408.87,-186.97"/>
</g>
<!-- 19 -->
<g id="node19" class="node">
<title>19</title>
<ellipse fill="none" stroke="black" cx="284.5" cy="-90" rx="40.09" ry="18"/>
<text text-anchor="middle" x="284.5" y="-86.3" font-family="Times,serif" font-size="14.00">VALOR</text>
</g>
<!-- 18&#45;&gt;19 -->
<g id="edge18" class="edge">
<title>18&#45;&gt;19</title>
<path fill="none" stroke="black" d="M284.5,-143.7C284.5,-135.98 284.5,-126.71 284.5,-118.11"/>
<polygon fill="black" stroke="black" points="288,-118.1 284.5,-108.1 281,-118.1 288,-118.1"/>
</g>
<!-- 20 -->
<g id="node20" class="node">
<title>20</title>
<ellipse fill="none" stroke="black" cx="284.5" cy="-18" rx="27" ry="18"/>
<text text-anchor="middle" x="284.5" y="-14.3" font-family="Times,serif" font-size="14.00">4</text>
</g>
<!-- 19&#45;&gt;20 -->
<g id="edge19" class="edge">
<title>19&#45;&gt;20</title>
<path fill="none" stroke="black" d="M284.5,-71.7C284.5,-63.98 284.5,-54.71 284.5,-46.11"/>
<polygon fill="black" stroke="black" points="288,-46.1 284.5,-36.1 281,-46.1 288,-46.1"/>
</g>
<!-- 23 -->
<g id="node23" class="node">
<title>23</title>
<ellipse fill="none" stroke="black" cx="428.5" cy="-90" rx="40.09" ry="18"/>
<text text-anchor="middle" x="428.5" y="-86.3" font-family="Times,serif" font-size="14.00">VALOR</text>
</g>
<!-- 22&#45;&gt;23 -->
<g id="edge22" class="edge">
<title>22&#45;&gt;23</title>
<path fill="none" stroke="black" d="M428.5,-143.7C428.5,-135.98 428.5,-126.71 428.5,-118.11"/>
<polygon fill="black" stroke="black" points="432,-118.1 428.5,-108.1 425,-118.1 432,-118.1"/>
</g>
<!-- 24 -->
<g id="node24" class="node">
<title>24</title>
<ellipse fill="none" stroke="black" cx="428.5" cy="-18" rx="27" ry="18"/>
<text text-anchor="middle" x="428.5" y="-14.3" font-family="Times,serif" font-size="14.00">5</text>
</g>
<!-- 23&#45;&gt;24 -->
<g id="edge23" class="edge">
<title>23&#45;&gt;24</title>
<path fill="none" stroke="black" d="M428.5,-71.7C428.5,-63.98 428.5,-54.71 428.5,-46.11"/>
<polygon fill="black" stroke="black" points="432,-46.1 428.5,-36.1 425,-46.1 432,-46.1"/>
</g>
<!-- 26 -->
<g id="node26" class="node">
<title>26</title>
<ellipse fill="none" stroke="black" cx="445.5" cy="-234" rx="27" ry="18"/>
<text text-anchor="middle" x="445.5" y="-230.3" font-family="Times,serif" font-size="14.00">lole</text>
</g>
<!-- 25&#45;&gt;26 -->
<g id="edge25" class="edge">
<title>25&#45;&gt;26</title>
<path fill="none" stroke="black" d="M474.3,-288.05C469.75,-279.68 464.17,-269.4 459.14,-260.13"/>
<polygon fill="black" stroke="black" points="462.2,-258.43 454.35,-251.31 456.04,-261.77 462.2,-258.43"/>
</g>
<!-- 27 -->
<g id="node27" class="node">
<title>27</title>
<ellipse fill="none" stroke="black" cx="517.5" cy="-234" rx="27.1" ry="18"/>
<text text-anchor="middle" x="517.5" y="-230.3" font-family="Times,serif" font-size="14.00">EXP</text>
</g>
<!-- 25&#45;&gt;27 -->
<g id="edge26" class="edge">
<title>25&#45;&gt;27</title>
<path fill="none" stroke="black" d="M491.73,-288.05C495.75,-279.77 500.68,-269.62 505.15,-260.42"/>
<polygon fill="black" stroke="black" points="508.36,-261.83 509.58,-251.31 502.06,-258.77 508.36,-261.83"/>
</g>
<!-- 28 -->
<g id="node28" class="node">
<title>28</title>
<ellipse fill="none" stroke="black" cx="517.5" cy="-162" rx="40.09" ry="18"/>
<text text-anchor="middle" x="517.5" y="-158.3" font-family="Times,serif" font-size="14.00">VALOR</text>
</g>
<!-- 27&#45;&gt;28 -->
<g id="edge27" class="edge">
<title>27&#45;&gt;28</title>
<path fill="none" stroke="black" d="M517.5,-215.7C517.5,-207.98 517.5,-198.71 517.5,-190.11"/>
<polygon fill="black" stroke="black" points="521,-190.1 517.5,-180.1 514,-190.1 521,-190.1"/>
</g>
<!-- 29 -->
<g id="node29" class="node">
<title>29</title>
<ellipse fill="none" stroke="black" cx="517.5" cy="-90" rx="27" ry="18"/>
<text text-anchor="middle" x="517.5" y="-86.3" font-family="Times,serif" font-size="14.00">45</text>
</g>
<!-- 28&#45;&gt;29 -->
<g id="edge28" class="edge">
<title>28&#45;&gt;29</title>
<path fill="none" stroke="black" d="M517.5,-143.7C517.5,-135.98 517.5,-126.71 517.5,-118.11"/>
<polygon fill="black" stroke="black" points="521,-118.1 517.5,-108.1 514,-118.1 521,-118.1"/>
</g>
<!-- 31 -->
<g id="node31" class="node">
<title>31</title>
<ellipse fill="none" stroke="black" cx="377.5" cy="-378" rx="32.49" ry="18"/>
<text text-anchor="middle" x="377.5" y="-374.3" font-family="Times,serif" font-size="14.00">public</text>
</g>
<!-- 30&#45;&gt;31 -->
<g id="edge30" class="edge">
<title>30&#45;&gt;31</title>
<path fill="none" stroke="black" d="M514.32,-434.6C487.77,-424 450.85,-409.2 418.5,-396 416.41,-395.15 414.27,-394.27 412.1,-393.38"/>
<polygon fill="black" stroke="black" points="413.21,-390.05 402.63,-389.47 410.54,-396.52 413.21,-390.05"/>
</g>
<!-- 32 -->
<g id="node32" class="node">
<title>32</title>
<ellipse fill="none" stroke="black" cx="454.5" cy="-378" rx="27" ry="18"/>
<text text-anchor="middle" x="454.5" y="-374.3" font-family="Times,serif" font-size="14.00">void</text>
</g>
<!-- 30&#45;&gt;32 -->
<g id="edge31" class="edge">
<title>30&#45;&gt;32</title>
<path fill="none" stroke="black" d="M528.23,-432.76C513.97,-422.37 495.41,-408.83 480.47,-397.94"/>
<polygon fill="black" stroke="black" points="482.3,-394.94 472.16,-391.88 478.18,-400.6 482.3,-394.94"/>
</g>
<!-- 33 -->
<g id="node33" class="node">
<title>33</title>
<ellipse fill="none" stroke="black" cx="550.5" cy="-378" rx="51.19" ry="18"/>
<text text-anchor="middle" x="550.5" y="-374.3" font-family="Times,serif" font-size="14.00">MyMetodo</text>
</g>
<!-- 30&#45;&gt;33 -->
<g id="edge32" class="edge">
<title>30&#45;&gt;33</title>
<path fill="none" stroke="black" d="M550.5,-431.7C550.5,-423.98 550.5,-414.71 550.5,-406.11"/>
<polygon fill="black" stroke="black" points="554,-406.1 550.5,-396.1 547,-406.1 554,-406.1"/>
</g>
<!-- 34 -->
<g id="node34" class="node">
<title>34</title>
<ellipse fill="none" stroke="black" cx="646.5" cy="-378" rx="27" ry="18"/>
<text text-anchor="middle" x="646.5" y="-374.3" font-family="Times,serif" font-size="14.00">(</text>
</g>
<!-- 30&#45;&gt;34 -->
<g id="edge33" class="edge">
<title>30&#45;&gt;34</title>
<path fill="none" stroke="black" d="M572.76,-432.76C587.02,-422.37 605.59,-408.83 620.52,-397.94"/>
<polygon fill="black" stroke="black" points="622.82,-400.6 628.83,-391.88 618.69,-394.94 622.82,-400.6"/>
</g>
<!-- 35 -->
<g id="node35" class="node">
<title>35</title>
<ellipse fill="none" stroke="black" cx="761.5" cy="-378" rx="69.59" ry="18"/>
<text text-anchor="middle" x="761.5" y="-374.3" font-family="Times,serif" font-size="14.00">PARAMETROS</text>
</g>
<!-- 30&#45;&gt;35 -->
<g id="edge34" class="edge">
<title>30&#45;&gt;35</title>
<path fill="none" stroke="black" d="M591.43,-435.42C625.39,-424.15 673.85,-408.08 710.36,-395.97"/>
<polygon fill="black" stroke="black" points="711.93,-399.13 720.32,-392.66 709.72,-392.49 711.93,-399.13"/>
</g>
<!-- 37 -->
<g id="node37" class="node">
<title>37</title>
<ellipse fill="none" stroke="black" cx="898.5" cy="-378" rx="49.29" ry="18"/>
<text text-anchor="middle" x="898.5" y="-374.3" font-family="Times,serif" font-size="14.00">STATCOR</text>
</g>
<!-- 30&#45;&gt;37 -->
<g id="edge36" class="edge">
<title>30&#45;&gt;37</title>
<path fill="none" stroke="black" d="M608.92,-440.16C667.75,-430.83 760.94,-414.87 840.5,-396 844.35,-395.09 848.33,-394.07 852.31,-393.01"/>
<polygon fill="black" stroke="black" points="853.44,-396.33 862.14,-390.29 851.57,-389.58 853.44,-396.33"/>
</g>
<!-- 36 -->
<g id="node36" class="node">
<title>36</title>
<ellipse fill="none" stroke="black" cx="761.5" cy="-306" rx="27" ry="18"/>
<text text-anchor="middle" x="761.5" y="-302.3" font-family="Times,serif" font-size="14.00">)</text>
</g>
<!-- 35&#45;&gt;36 -->
<g id="edge35" class="edge">
<title>35&#45;&gt;36</title>
<path fill="none" stroke="black" d="M761.5,-359.7C761.5,-351.98 761.5,-342.71 761.5,-334.11"/>
<polygon fill="black" stroke="black" points="765,-334.1 761.5,-324.1 758,-334.1 765,-334.1"/>
</g>
<!-- 38 -->
<g id="node38" class="node">
<title>38</title>
<ellipse fill="none" stroke="black" cx="865.5" cy="-306" rx="27" ry="18"/>
<text text-anchor="middle" x="865.5" y="-302.3" font-family="Times,serif" font-size="14.00">{</text>
</g>
<!-- 37&#45;&gt;38 -->
<g id="edge37" class="edge">
<title>37&#45;&gt;38</title>
<path fill="none" stroke="black" d="M890.51,-360.05C886.6,-351.77 881.82,-341.62 877.48,-332.42"/>
<polygon fill="black" stroke="black" points="880.61,-330.86 873.18,-323.31 874.28,-333.84 880.61,-330.86"/>
</g>
<!-- 39 -->
<g id="node39" class="node">
<title>39</title>
<ellipse fill="none" stroke="black" cx="987.5" cy="-306" rx="77.19" ry="18"/>
<text text-anchor="middle" x="987.5" y="-302.3" font-family="Times,serif" font-size="14.00">STATCORPRIMA</text>
</g>
<!-- 37&#45;&gt;39 -->
<g id="edge38" class="edge">
<title>37&#45;&gt;39</title>
<path fill="none" stroke="black" d="M918.25,-361.46C930.12,-352.13 945.45,-340.07 958.66,-329.68"/>
<polygon fill="black" stroke="black" points="960.86,-332.4 966.56,-323.47 956.54,-326.9 960.86,-332.4"/>
</g>
<!-- 40 -->
<g id="node40" class="node">
<title>40</title>
<ellipse fill="none" stroke="black" cx="987.5" cy="-234" rx="27" ry="18"/>
<text text-anchor="middle" x="987.5" y="-230.3" font-family="Times,serif" font-size="14.00">}</text>
</g>
<!-- 39&#45;&gt;40 -->
<g id="edge39" class="edge">
<title>39&#45;&gt;40</title>
<path fill="none" stroke="black" d="M987.5,-287.7C987.5,-279.98 987.5,-270.71 987.5,-262.11"/>
<polygon fill="black" stroke="black" points="991,-262.1 987.5,-252.1 984,-262.1 991,-262.1"/>
</g>
</g>
</svg>
